<svg id="Calque_5" data-name="Calque 5" xmlns="http://www.w3.org/2000/svg" viewBox="0 0 854.9 494.8"><defs><style>.cls-1{fill:#dbea83;}.cls-2{fill:#248984;}.cls-3,.cls-5{fill:#91ad1c;}.cls-4,.cls-6{fill:#096868;}.cls-5{font-size:123.53px;}.cls-5,.cls-6{font-family:InkFree, Ink Free;}.cls-6{font-size:88.18px;}</style></defs><path d="M557.45,229.55c-13.79,34.2-27.68,68.36-42.1,102.31-3.64,8.47-7.24,17-11.09,25.36-.93,2.11-2,4.18-3,6.27-.47,1.05-1.07,2.09-1.65,3.13l-.44.78-.22.39a2,2,0,0,1-.28.42,5.66,5.66,0,0,1-1.58,1.33,25.26,25.26,0,0,1-6.78,2.44c-2.29.54-4.59.95-6.89,1.29a231.78,231.78,0,0,1-27.71,2.06c-9.25.18-18.51,0-27.76-.69-4.63-.36-9.26-.85-13.87-1.67a55.58,55.58,0,0,1-6.91-1.68,22.38,22.38,0,0,1-3.44-1.43,9.53,9.53,0,0,1-1.7-1.14,6.74,6.74,0,0,1-.79-.81l-.59-.78a66.73,66.73,0,0,1-3.57-6.14c-1.08-2.05-2.12-4.13-3.13-6.21-2-4.16-4-8.34-5.91-12.54-7.7-16.78-15.06-33.69-22.35-50.64q-21.83-50.84-42.8-102l2.76,0Q302,243.21,277.47,296.45c-8.25,17.72-16.51,35.43-25.36,52.89-2.23,4.36-4.5,8.7-7,13-.65,1.07-1.22,2.14-2,3.2-.36.53-.68,1.05-1.08,1.59a15.93,15.93,0,0,1-1.4,1.59c-.31.25-.62.48-.93.71l-.93.49a13.77,13.77,0,0,1-1.84.79,34.69,34.69,0,0,1-3.67,1.09A107.79,107.79,0,0,1,218.66,374c-4.9.47-9.81.74-14.71.9a268,268,0,0,1-29.45-.62,129.25,129.25,0,0,1-14.7-2,42.23,42.23,0,0,1-7.3-2.12,15,15,0,0,1-1.81-.88l-.89-.55a5.25,5.25,0,0,1-.91-.77,24.32,24.32,0,0,1-2.36-3.18c-2.69-4.21-5-8.54-7.25-12.88s-4.46-8.72-6.63-13.11q-6.47-13.16-12.64-26.46C103.51,277,87.82,241.15,72.57,205.17q-11.4-27-22.34-54.21C43,132.81,35.9,114.59,29.35,96.15c-3.26-9.22-6.42-18.49-9.09-27.95a87.75,87.75,0,0,1-3.09-14.6,18.93,18.93,0,0,1-.05-2c0-.35,0-.71.09-1.06l.2-1.05a12.3,12.3,0,0,1,1.75-3.8,17.5,17.5,0,0,1,2.71-3A25.33,25.33,0,0,1,25,40.43a51.49,51.49,0,0,1,14-5.49,114.11,114.11,0,0,1,14.61-2.61,174.24,174.24,0,0,1,29.51-.79,136.45,136.45,0,0,1,29.23,4.51A51.46,51.46,0,0,1,126.24,42a19,19,0,0,1,5.66,5.47l2,3.08c.65,1.07,1.33,2.09,1.94,3.2a41,41,0,0,1,3.1,6.91c.81,2.34,1.59,4.66,2.36,7,1.54,4.63,3.13,9.23,4.74,13.84q4.89,13.77,10.09,27.46C170,145.4,184.72,181.57,199.56,217.7l-2.79,0q21.73-58.05,43.68-116l11.06-29,5.61-14.46c1-2.41,1.88-4.78,2.91-7.24A19.84,19.84,0,0,1,265,44.37a42.4,42.4,0,0,1,13.88-7.91A92.87,92.87,0,0,1,294,32.38a166,166,0,0,1,31.12-2.6,173.74,173.74,0,0,1,31.1,2.84,91.43,91.43,0,0,1,15.18,4.19,43.08,43.08,0,0,1,7.19,3.52,18.72,18.72,0,0,1,6.1,5.68c.18.32.38.62.54,1l.45,1,.66,1.82,1.33,3.64,2.66,7.28,5.31,14.55,10.62,29.12,42.46,116.47h-.5l15.1-35.3-14.6,35.51-.26.63-.24-.64L404.34,105.13l-11-29-5.48-14.49-2.75-7.25-1.37-3.62L383.09,49l-.34-.75c-.12-.24-.28-.47-.42-.71a16,16,0,0,0-5.24-4.7,40.5,40.5,0,0,0-6.74-3.2,87.86,87.86,0,0,0-14.68-4,168.61,168.61,0,0,0-30.53-2.84,164.4,164.4,0,0,0-30.56,2.54,91.81,91.81,0,0,0-14.7,4A39.67,39.67,0,0,0,267,46.58a16.8,16.8,0,0,0-4.21,5.68c-1,2.31-1.92,4.76-2.87,7.14l-5.6,14.44-11.06,28.94q-22,57.94-43.67,116l-1.34,3.57-1.45-3.53c-14.85-36.14-29.6-72.33-43.46-108.88q-5.21-13.71-10.11-27.54c-1.62-4.61-3.22-9.24-4.76-13.88-.77-2.32-1.54-4.63-2.33-6.91a39.72,39.72,0,0,0-2.88-6.44c-.57-1-1.25-2-1.86-3.06l-2-3.05a15.87,15.87,0,0,0-4.82-4.61,48.47,48.47,0,0,0-13-5.54A134.29,134.29,0,0,0,83,34.53a173.25,173.25,0,0,0-29,.78,111.07,111.07,0,0,0-14.22,2.54A48.9,48.9,0,0,0,26.61,43a21.47,21.47,0,0,0-2.77,2,14.4,14.4,0,0,0-2.22,2.41,9.42,9.42,0,0,0-1.3,2.81,10,10,0,0,0-.16,3.17,84.16,84.16,0,0,0,3,14c2.63,9.34,5.78,18.57,9,27.76,6.53,18.38,13.6,36.57,20.84,54.7S67.74,186,75.34,204c15.23,35.95,30.91,71.73,47.39,107.12q6.18,13.28,12.61,26.41c2.16,4.37,4.35,8.73,6.6,13s4.54,8.63,7.11,12.64a21.16,21.16,0,0,0,2,2.71c.17.13.22.28.47.41l.67.41a15.62,15.62,0,0,0,1.48.72,40.49,40.49,0,0,0,6.75,1.94,126.21,126.21,0,0,0,14.33,1.91,264.1,264.1,0,0,0,29.11.61c4.86-.15,9.71-.42,14.53-.88a104.62,104.62,0,0,0,14.25-2.18,31.74,31.74,0,0,0,3.35-1,13.35,13.35,0,0,0,1.52-.65l.69-.36.53-.4a14.68,14.68,0,0,0,1-1.16c.33-.44.64-1,1-1.44.66-.95,1.24-2,1.87-3.06,2.4-4.18,4.66-8.5,6.87-12.84,8.82-17.38,17.08-35.08,25.32-52.78Q299.35,242,322.94,188.4l1.42-3.22,1.34,3.25q21.06,51.13,42.79,102c7.28,16.93,14.62,33.84,22.32,50.56,1.94,4.17,3.9,8.34,5.92,12.46q1.51,3.09,3.11,6.13a62.73,62.73,0,0,0,3.35,5.82l.44.6a3.39,3.39,0,0,0,.42.43,6.42,6.42,0,0,0,1.17.78,18.92,18.92,0,0,0,2.93,1.22,53.07,53.07,0,0,0,6.52,1.61c4.44.85,9,1.39,13.55,1.8,9.12.8,18.32,1.08,27.5,1a230.48,230.48,0,0,0,27.44-1.7c2.26-.31,4.51-.69,6.72-1.18a23.52,23.52,0,0,0,6.22-2.12,3.79,3.79,0,0,0,1.06-.85,1,1,0,0,0,.21-.3l.2-.36.42-.73c.55-1,1.11-1.91,1.6-3,1-2.07,2.06-4.1,3-6.19,3.93-8.32,7.63-16.77,11.37-25.19,7.42-16.87,14.68-33.82,21.91-50.78S550.32,246.55,557.45,229.55Z" transform="translate(-17.1 -29.78)"/><polygon class="cls-1" points="181.07 223.11 263.88 25.3 307.21 124.2 222.78 326.04 181.07 223.11"/><polygon class="cls-2" points="430.68 224.4 519.21 22.22 607.21 22.22 474.29 326.04 430.68 224.4"/><polygon class="cls-1" points="431.4 221.03 456.64 165.67 482.17 163.45 492.53 185.38 519.39 179.67 528.9 203.22 475 326.04 431.4 221.03"/><polygon class="cls-2" points="688.6 223.11 771.41 25.3 854.9 25.3 730.31 326.04 688.6 223.11"/><polygon class="cls-3" points="11.67 22.22 99.67 22.22 222.78 326.04 140.74 326.03 11.67 22.22"/><polygon class="cls-3" points="263.88 22.22 351.88 22.22 475 326.04 392.96 326.03 263.88 22.22"/><polygon class="cls-4" points="519.21 22.22 607.21 22.22 730.33 326.04 648.29 326.03 519.21 22.22"/><g id="Calque_2" data-name="Calque 2"><text class="cls-5" transform="translate(155.94 454.28)">WEB</text><text class="cls-6" transform="translate(423.33 445.48)">Numerik</text></g></svg>